{
    "asset" : {
        "generator" : "Khronos glTF Blender I/O v1.7.33",
        "version" : "2.0"
    },
    "scene" : 0,
    "scenes" : [
        {
            "name" : "Scene",
            "nodes" : [
                0,
                2,
                3,
                4,
                5,
                6,
                7,
                8
            ]
        }
    ],
    "nodes" : [
        {
            "mesh" : 0,
            "name" : "carbody",
            "rotation" : [
                0,
                0.9999817609786987,
                0,
                0.006048360839486122
            ]
        },
        {
            "camera" : 0,
            "name" : "Camera_Orientation",
            "rotation" : [
                -0.7071067690849304,
                0,
                0,
                0.7071067690849304
            ]
        },
        {
            "children" : [
                1
            ],
            "name" : "Camera",
            "rotation" : [
                -0.4876405596733093,
                0.3210870325565338,
                -0.19892454147338867,
                -0.7871078848838806
            ],
            "translation" : [
                -6.88249397277832,
                4.958309173583984,
                6.004032135009766
            ]
        },
        {
            "mesh" : 1,
            "name" : "Plane",
            "rotation" : [
                0,
                0.6195940971374512,
                0,
                -0.7849224209785461
            ],
            "scale" : [
                6,
                6,
                6
            ],
            "translation" : [
                -5.620752334594727,
                0,
                -20
            ]
        },
        {
            "mesh" : 2,
            "name" : "Cube",
            "rotation" : [
                0,
                0.7071068286895752,
                0,
                -0.7071068286895752
            ],
            "scale" : [
                0.3090229034423828,
                1,
                1
            ],
            "translation" : [
                -3.9639275074005127,
                1,
                -15.256919860839844
            ]
        },
        {
            "mesh" : 3,
            "name" : "Cube.001",
            "rotation" : [
                0,
                0.7071068286895752,
                0,
                -0.7071068286895752
            ],
            "scale" : [
                0.3090229034423828,
                1,
                1
            ],
            "translation" : [
                2.9305953979492188,
                1,
                -3.625365734100342
            ]
        },
        {
            "name" : "Empty",
            "scale" : [
                6,
                6,
                6
            ],
            "translation" : [
                79.96630859375,
                0,
                41.91511154174805
            ]
        },
        {
            "mesh" : 4,
            "name" : "Plane.001",
            "rotation" : [
                0,
                0.6195940971374512,
                0,
                -0.7849224209785461
            ],
            "scale" : [
                6,
                6,
                6
            ],
            "translation" : [
                -5.620752334594727,
                0,
                -20
            ]
        },
        {
            "mesh" : 5,
            "name" : "Plane.002",
            "rotation" : [
                0,
                0.6195940971374512,
                0,
                -0.7849224209785461
            ],
            "scale" : [
                6,
                6,
                6
            ],
            "translation" : [
                -5.620752334594727,
                0,
                -20
            ]
        }
    ],
    "cameras" : [
        {
            "name" : "Camera",
            "perspective" : {
                "aspectRatio" : 1.7777777777777777,
                "yfov" : 0.39959648408210363,
                "zfar" : 100,
                "znear" : 0.10000000149011612
            },
            "type" : "perspective"
        }
    ],
    "materials" : [
        {
            "alphaMode" : "BLEND",
            "doubleSided" : true,
            "name" : "WINDOW",
            "pbrMetallicRoughness" : {
                "baseColorTexture" : {
                    "index" : 0
                },
                "metallicFactor" : 0,
                "roughnessFactor" : 0
            }
        },
        {
            "doubleSided" : true,
            "name" : "MAIN",
            "pbrMetallicRoughness" : {
                "baseColorTexture" : {
                    "index" : 1
                },
                "metallicFactor" : 0.5,
                "roughnessFactor" : 0.5
            }
        },
        {
            "doubleSided" : true,
            "name" : "Material.001",
            "pbrMetallicRoughness" : {
                "baseColorTexture" : {
                    "index" : 2
                },
                "metallicFactor" : 0,
                "roughnessFactor" : 0.5
            }
        },
        {
            "doubleSided" : true,
            "name" : "Material.003",
            "pbrMetallicRoughness" : {
                "baseColorTexture" : {
                    "index" : 3
                },
                "metallicFactor" : 0,
                "roughnessFactor" : 0.5
            }
        }
    ],
    "meshes" : [
        {
            "name" : "Circle.073",
            "primitives" : [
                {
                    "attributes" : {
                        "POSITION" : 0,
                        "NORMAL" : 1,
                        "TANGENT" : 2,
                        "TEXCOORD_0" : 3
                    },
                    "indices" : 4,
                    "material" : 0
                },
                {
                    "attributes" : {
                        "POSITION" : 5,
                        "NORMAL" : 6,
                        "TANGENT" : 7,
                        "TEXCOORD_0" : 8
                    },
                    "indices" : 9,
                    "material" : 1
                }
            ]
        },
        {
            "name" : "Plane",
            "primitives" : [
                {
                    "attributes" : {
                        "POSITION" : 10,
                        "NORMAL" : 11,
                        "TANGENT" : 12,
                        "TEXCOORD_0" : 13
                    },
                    "indices" : 14,
                    "material" : 2
                }
            ]
        },
        {
            "name" : "Cube.001",
            "primitives" : [
                {
                    "attributes" : {
                        "POSITION" : 15,
                        "NORMAL" : 16,
                        "TANGENT" : 17,
                        "TEXCOORD_0" : 18
                    },
                    "indices" : 19,
                    "material" : 0
                }
            ]
        },
        {
            "name" : "Cube.002",
            "primitives" : [
                {
                    "attributes" : {
                        "POSITION" : 20,
                        "NORMAL" : 21,
                        "TANGENT" : 22,
                        "TEXCOORD_0" : 23
                    },
                    "indices" : 19,
                    "material" : 0
                }
            ]
        },
        {
            "name" : "Plane.001",
            "primitives" : [
                {
                    "attributes" : {
                        "POSITION" : 24,
                        "NORMAL" : 25,
                        "TANGENT" : 26,
                        "TEXCOORD_0" : 27
                    },
                    "indices" : 28,
                    "material" : 3
                }
            ]
        },
        {
            "name" : "Plane.002",
            "primitives" : [
                {
                    "attributes" : {
                        "POSITION" : 29,
                        "NORMAL" : 30,
                        "TANGENT" : 31,
                        "TEXCOORD_0" : 32
                    },
                    "indices" : 28,
                    "material" : 3
                }
            ]
        }
    ],
    "textures" : [
        {
            "sampler" : 0,
            "source" : 0
        },
        {
            "sampler" : 0,
            "source" : 0
        },
        {
            "sampler" : 0,
            "source" : 1
        },
        {
            "sampler" : 0,
            "source" : 2
        }
    ],
    "images" : [
        {
            "mimeType" : "image/png",
            "name" : "Color_Texture_FREE CAR 2021",
            "uri" : "Color_Texture_FREE%20CAR%202021.png"
        },
        {
            "mimeType" : "image/png",
            "name" : "Untitled",
            "uri" : "Untitled.png"
        },
        {
            "mimeType" : "image/png",
            "name" : "Untitled",
            "uri" : "Untitled-1.png"
        }
    ],
    "accessors" : [
        {
            "bufferView" : 0,
            "componentType" : 5126,
            "count" : 24,
            "max" : [
                0.8328425288200378,
                1.669926404953003,
                0.665921688079834
            ],
            "min" : [
                -0.8328425884246826,
                1.0708999633789062,
                -1.7224246263504028
            ],
            "type" : "VEC3"
        },
        {
            "bufferView" : 1,
            "componentType" : 5126,
            "count" : 24,
            "type" : "VEC3"
        },
        {
            "bufferView" : 2,
            "componentType" : 5126,
            "count" : 24,
            "type" : "VEC4"
        },
        {
            "bufferView" : 3,
            "componentType" : 5126,
            "count" : 24,
            "type" : "VEC2"
        },
        {
            "bufferView" : 4,
            "componentType" : 5123,
            "count" : 30,
            "type" : "SCALAR"
        },
        {
            "bufferView" : 5,
            "componentType" : 5126,
            "count" : 6383,
            "max" : [
                1.0883210897445679,
                1.7160087823867798,
                1.6670520305633545
            ],
            "min" : [
                -1.0883214473724365,
                0.002118527889251709,
                -1.7920552492141724
            ],
            "type" : "VEC3"
        },
        {
            "bufferView" : 6,
            "componentType" : 5126,
            "count" : 6383,
            "type" : "VEC3"
        },
        {
            "bufferView" : 7,
            "componentType" : 5126,
            "count" : 6383,
            "type" : "VEC4"
        },
        {
            "bufferView" : 8,
            "componentType" : 5126,
            "count" : 6383,
            "type" : "VEC2"
        },
        {
            "bufferView" : 9,
            "componentType" : 5123,
            "count" : 9714,
            "type" : "SCALAR"
        },
        {
            "bufferView" : 10,
            "componentType" : 5126,
            "count" : 320,
            "max" : [
                14.681985855102539,
                0,
                1.0744273662567139
            ],
            "min" : [
                -15.861042022705078,
                0,
                -29.47144317626953
            ],
            "type" : "VEC3"
        },
        {
            "bufferView" : 11,
            "componentType" : 5126,
            "count" : 320,
            "type" : "VEC3"
        },
        {
            "bufferView" : 12,
            "componentType" : 5126,
            "count" : 320,
            "type" : "VEC4"
        },
        {
            "bufferView" : 13,
            "componentType" : 5126,
            "count" : 320,
            "type" : "VEC2"
        },
        {
            "bufferView" : 14,
            "componentType" : 5123,
            "count" : 480,
            "type" : "SCALAR"
        },
        {
            "bufferView" : 15,
            "componentType" : 5126,
            "count" : 24,
            "max" : [
                1,
                1,
                1
            ],
            "min" : [
                -1,
                -1,
                -1
            ],
            "type" : "VEC3"
        },
        {
            "bufferView" : 16,
            "componentType" : 5126,
            "count" : 24,
            "type" : "VEC3"
        },
        {
            "bufferView" : 17,
            "componentType" : 5126,
            "count" : 24,
            "type" : "VEC4"
        },
        {
            "bufferView" : 18,
            "componentType" : 5126,
            "count" : 24,
            "type" : "VEC2"
        },
        {
            "bufferView" : 19,
            "componentType" : 5123,
            "count" : 36,
            "type" : "SCALAR"
        },
        {
            "bufferView" : 20,
            "componentType" : 5126,
            "count" : 24,
            "max" : [
                1,
                1,
                1
            ],
            "min" : [
                -1,
                -1,
                -1
            ],
            "type" : "VEC3"
        },
        {
            "bufferView" : 21,
            "componentType" : 5126,
            "count" : 24,
            "type" : "VEC3"
        },
        {
            "bufferView" : 22,
            "componentType" : 5126,
            "count" : 24,
            "type" : "VEC4"
        },
        {
            "bufferView" : 23,
            "componentType" : 5126,
            "count" : 24,
            "type" : "VEC2"
        },
        {
            "bufferView" : 24,
            "componentType" : 5126,
            "count" : 1920,
            "max" : [
                12.720372200012207,
                0.3333333432674408,
                -0.8807423710823059
            ],
            "min" : [
                -13.890363693237305,
                0,
                -27.50465965270996
            ],
            "type" : "VEC3"
        },
        {
            "bufferView" : 25,
            "componentType" : 5126,
            "count" : 1920,
            "type" : "VEC3"
        },
        {
            "bufferView" : 26,
            "componentType" : 5126,
            "count" : 1920,
            "type" : "VEC4"
        },
        {
            "bufferView" : 27,
            "componentType" : 5126,
            "count" : 1920,
            "type" : "VEC2"
        },
        {
            "bufferView" : 28,
            "componentType" : 5123,
            "count" : 2880,
            "type" : "SCALAR"
        },
        {
            "bufferView" : 29,
            "componentType" : 5126,
            "count" : 1920,
            "max" : [
                14.731060981750488,
                0.3333333432674408,
                1.1232471466064453
            ],
            "min" : [
                -15.910531997680664,
                0,
                -29.520742416381836
            ],
            "type" : "VEC3"
        },
        {
            "bufferView" : 30,
            "componentType" : 5126,
            "count" : 1920,
            "type" : "VEC3"
        },
        {
            "bufferView" : 31,
            "componentType" : 5126,
            "count" : 1920,
            "type" : "VEC4"
        },
        {
            "bufferView" : 32,
            "componentType" : 5126,
            "count" : 1920,
            "type" : "VEC2"
        }
    ],
    "bufferViews" : [
        {
            "buffer" : 0,
            "byteLength" : 288,
            "byteOffset" : 0
        },
        {
            "buffer" : 0,
            "byteLength" : 288,
            "byteOffset" : 288
        },
        {
            "buffer" : 0,
            "byteLength" : 384,
            "byteOffset" : 576
        },
        {
            "buffer" : 0,
            "byteLength" : 192,
            "byteOffset" : 960
        },
        {
            "buffer" : 0,
            "byteLength" : 60,
            "byteOffset" : 1152
        },
        {
            "buffer" : 0,
            "byteLength" : 76596,
            "byteOffset" : 1212
        },
        {
            "buffer" : 0,
            "byteLength" : 76596,
            "byteOffset" : 77808
        },
        {
            "buffer" : 0,
            "byteLength" : 102128,
            "byteOffset" : 154404
        },
        {
            "buffer" : 0,
            "byteLength" : 51064,
            "byteOffset" : 256532
        },
        {
            "buffer" : 0,
            "byteLength" : 19428,
            "byteOffset" : 307596
        },
        {
            "buffer" : 0,
            "byteLength" : 3840,
            "byteOffset" : 327024
        },
        {
            "buffer" : 0,
            "byteLength" : 3840,
            "byteOffset" : 330864
        },
        {
            "buffer" : 0,
            "byteLength" : 5120,
            "byteOffset" : 334704
        },
        {
            "buffer" : 0,
            "byteLength" : 2560,
            "byteOffset" : 339824
        },
        {
            "buffer" : 0,
            "byteLength" : 960,
            "byteOffset" : 342384
        },
        {
            "buffer" : 0,
            "byteLength" : 288,
            "byteOffset" : 343344
        },
        {
            "buffer" : 0,
            "byteLength" : 288,
            "byteOffset" : 343632
        },
        {
            "buffer" : 0,
            "byteLength" : 384,
            "byteOffset" : 343920
        },
        {
            "buffer" : 0,
            "byteLength" : 192,
            "byteOffset" : 344304
        },
        {
            "buffer" : 0,
            "byteLength" : 72,
            "byteOffset" : 344496
        },
        {
            "buffer" : 0,
            "byteLength" : 288,
            "byteOffset" : 344568
        },
        {
            "buffer" : 0,
            "byteLength" : 288,
            "byteOffset" : 344856
        },
        {
            "buffer" : 0,
            "byteLength" : 384,
            "byteOffset" : 345144
        },
        {
            "buffer" : 0,
            "byteLength" : 192,
            "byteOffset" : 345528
        },
        {
            "buffer" : 0,
            "byteLength" : 23040,
            "byteOffset" : 345720
        },
        {
            "buffer" : 0,
            "byteLength" : 23040,
            "byteOffset" : 368760
        },
        {
            "buffer" : 0,
            "byteLength" : 30720,
            "byteOffset" : 391800
        },
        {
            "buffer" : 0,
            "byteLength" : 15360,
            "byteOffset" : 422520
        },
        {
            "buffer" : 0,
            "byteLength" : 5760,
            "byteOffset" : 437880
        },
        {
            "buffer" : 0,
            "byteLength" : 23040,
            "byteOffset" : 443640
        },
        {
            "buffer" : 0,
            "byteLength" : 23040,
            "byteOffset" : 466680
        },
        {
            "buffer" : 0,
            "byteLength" : 30720,
            "byteOffset" : 489720
        },
        {
            "buffer" : 0,
            "byteLength" : 15360,
            "byteOffset" : 520440
        }
    ],
    "samplers" : [
        {
            "magFilter" : 9729,
            "minFilter" : 9987
        }
    ],
    "buffers" : [
        {
            "byteLength" : 535800,
            "uri" : "lap.bin"
        }
    ]
}
