{
    "asset" : {
        "generator" : "Khronos glTF Blender I/O v1.0.5",
        "version" : "2.0"
    },
    "scene" : 0,
    "scenes" : [
        {
            "name" : "Scene",
            "nodes" : [
                1,
                2
            ]
        }
    ],
    "nodes" : [
        {
            "name" : "Camera",
            "rotation" : [
                -0.0038233171217143536,
                0.7860608696937561,
                -0.618118166923523,
                -0.004862112458795309
            ],
            "translation" : [
                -0.1784774214029312,
                3.6917524337768555,
                -10.855405807495117
            ]
        },
        {
            "children" : [
                0
            ],
            "mesh" : 0,
            "name" : "carbody",
            "rotation" : [
                0,
                0.9999817609786987,
                0,
                0.006048360839486122
            ]
        },
        {
            "mesh" : 1,
            "name" : "Plane",
            "rotation" : [
                0,
                0.7071067690849304,
                0,
                -0.7071067690849304
            ],
            "scale" : [
                100.41519927978516,
                6,
                6
            ],
            "translation" : [
                0.1802990436553955,
                0,
                -90.44278717041016
            ]
        }
    ],
    "materials" : [
        {
            "alphaMode" : "BLEND",
            "doubleSided" : true,
            "name" : "WINDOW",
            "pbrMetallicRoughness" : {
                "baseColorTexture" : {
                    "index" : 0,
                    "texCoord" : 0
                },
                "metallicFactor" : 0,
                "roughnessFactor" : 0
            }
        },
        {
            "doubleSided" : true,
            "name" : "MAIN",
            "pbrMetallicRoughness" : {
                "baseColorTexture" : {
                    "index" : 1,
                    "texCoord" : 0
                },
                "metallicFactor" : 0.5,
                "roughnessFactor" : 0.5
            }
        },
        {
            "doubleSided" : true,
            "name" : "Material",
            "pbrMetallicRoughness" : {
                "baseColorTexture" : {
                    "index" : 2,
                    "texCoord" : 0
                },
                "metallicFactor" : 0,
                "roughnessFactor" : 0.4000000059604645
            }
        }
    ],
    "meshes" : [
        {
            "name" : "Circle.073",
            "primitives" : [
                {
                    "attributes" : {
                        "POSITION" : 0,
                        "NORMAL" : 1,
                        "TEXCOORD_0" : 2
                    },
                    "indices" : 3,
                    "material" : 0
                },
                {
                    "attributes" : {
                        "POSITION" : 4,
                        "NORMAL" : 5,
                        "TEXCOORD_0" : 6
                    },
                    "indices" : 7,
                    "material" : 1
                }
            ]
        },
        {
            "name" : "Plane",
            "primitives" : [
                {
                    "attributes" : {
                        "POSITION" : 8,
                        "NORMAL" : 9,
                        "TEXCOORD_0" : 10
                    },
                    "indices" : 11,
                    "material" : 2
                }
            ]
        }
    ],
    "textures" : [
        {
            "source" : 0
        },
        {
            "source" : 1
        },
        {
            "source" : 2
        }
    ],
    "images" : [
        {
            "mimeType" : "image/png",
            "name" : "Color_Texture_FREE CAR 2021",
            "uri" : "Color_Texture_FREE CAR 2021.png"
        },
        {
            "mimeType" : "image/png",
            "name" : "Color_Texture_FREE CAR 2021",
            "uri" : "Color_Texture_FREE CAR 2021-1.png"
        },
        {
            "mimeType" : "image/png",
            "name" : "Untitled",
            "uri" : "Untitled.png"
        }
    ],
    "accessors" : [
        {
            "bufferView" : 0,
            "componentType" : 5126,
            "count" : 24,
            "max" : [
                0.8328425288200378,
                1.669926404953003,
                0.665921688079834
            ],
            "min" : [
                -0.8328425884246826,
                1.0708999633789062,
                -1.7224246263504028
            ],
            "type" : "VEC3"
        },
        {
            "bufferView" : 1,
            "componentType" : 5126,
            "count" : 24,
            "type" : "VEC3"
        },
        {
            "bufferView" : 2,
            "componentType" : 5126,
            "count" : 24,
            "type" : "VEC2"
        },
        {
            "bufferView" : 3,
            "componentType" : 5123,
            "count" : 30,
            "type" : "SCALAR"
        },
        {
            "bufferView" : 4,
            "componentType" : 5126,
            "count" : 6383,
            "max" : [
                1.0883210897445679,
                1.7160087823867798,
                1.6670520305633545
            ],
            "min" : [
                -1.0883214473724365,
                0.002118527889251709,
                -1.7920552492141724
            ],
            "type" : "VEC3"
        },
        {
            "bufferView" : 5,
            "componentType" : 5126,
            "count" : 6383,
            "type" : "VEC3"
        },
        {
            "bufferView" : 6,
            "componentType" : 5126,
            "count" : 6383,
            "type" : "VEC2"
        },
        {
            "bufferView" : 7,
            "componentType" : 5123,
            "count" : 9714,
            "type" : "SCALAR"
        },
        {
            "bufferView" : 8,
            "componentType" : 5126,
            "count" : 4,
            "max" : [
                1,
                0,
                1
            ],
            "min" : [
                -1,
                0,
                -1
            ],
            "type" : "VEC3"
        },
        {
            "bufferView" : 9,
            "componentType" : 5126,
            "count" : 4,
            "type" : "VEC3"
        },
        {
            "bufferView" : 10,
            "componentType" : 5126,
            "count" : 4,
            "type" : "VEC2"
        },
        {
            "bufferView" : 11,
            "componentType" : 5123,
            "count" : 6,
            "type" : "SCALAR"
        }
    ],
    "bufferViews" : [
        {
            "buffer" : 0,
            "byteLength" : 288,
            "byteOffset" : 0
        },
        {
            "buffer" : 0,
            "byteLength" : 288,
            "byteOffset" : 288
        },
        {
            "buffer" : 0,
            "byteLength" : 192,
            "byteOffset" : 576
        },
        {
            "buffer" : 0,
            "byteLength" : 60,
            "byteOffset" : 768
        },
        {
            "buffer" : 0,
            "byteLength" : 76596,
            "byteOffset" : 828
        },
        {
            "buffer" : 0,
            "byteLength" : 76596,
            "byteOffset" : 77424
        },
        {
            "buffer" : 0,
            "byteLength" : 51064,
            "byteOffset" : 154020
        },
        {
            "buffer" : 0,
            "byteLength" : 19428,
            "byteOffset" : 205084
        },
        {
            "buffer" : 0,
            "byteLength" : 48,
            "byteOffset" : 224512
        },
        {
            "buffer" : 0,
            "byteLength" : 48,
            "byteOffset" : 224560
        },
        {
            "buffer" : 0,
            "byteLength" : 32,
            "byteOffset" : 224608
        },
        {
            "buffer" : 0,
            "byteLength" : 12,
            "byteOffset" : 224640
        }
    ],
    "buffers" : [
        {
            "byteLength" : 224652,
            "uri" : "test.bin"
        }
    ]
}
