{
    "asset" : {
        "generator" : "Khronos glTF Blender I/O v1.7.33",
        "version" : "2.0"
    },
    "extensionsUsed" : [
        "KHR_lights_punctual"
    ],
    "extensionsRequired" : [
        "KHR_lights_punctual"
    ],
    "extensions" : {
        "KHR_lights_punctual" : {
            "lights" : [
                {
                    "color" : [
                        1,
                        1,
                        1
                    ],
                    "intensity" : 10,
                    "spot" : {
                        "innerConeAngle" : 0.3337942263919169,
                        "outerConeAngle" : 0.39269909262657166
                    },
                    "type" : "spot",
                    "name" : "Spot"
                },
                {
                    "color" : [
                        1,
                        1,
                        1
                    ],
                    "intensity" : 1000,
                    "type" : "point",
                    "name" : "Light"
                }
            ]
        }
    },
    "scene" : 0,
    "scenes" : [
        {
            "name" : "Scene",
            "nodes" : [
                2,
                3,
                5,
                7,
                8,
                9,
                10
            ]
        }
    ],
    "nodes" : [
        {
            "extensions" : {
                "KHR_lights_punctual" : {
                    "light" : 0
                }
            },
            "name" : "Spot_Orientation",
            "rotation" : [
                -0.7071067690849304,
                0,
                0,
                0.7071067690849304
            ]
        },
        {
            "children" : [
                0
            ],
            "name" : "Spot",
            "rotation" : [
                0.6755902171134949,
                0,
                0,
                -0.7372773289680481
            ],
            "translation" : [
                0,
                0.7599997520446777,
                0.9099996089935303
            ]
        },
        {
            "children" : [
                1
            ],
            "mesh" : 0,
            "name" : "carbody",
            "rotation" : [
                0,
                0.9999817609786987,
                0,
                0.006048360839486122
            ],
            "translation" : [
                -107.24366760253906,
                0,
                0
            ]
        },
        {
            "mesh" : 1,
            "name" : "Ground",
            "scale" : [
                10,
                1,
                52.42986297607422
            ]
        },
        {
            "extensions" : {
                "KHR_lights_punctual" : {
                    "light" : 1
                }
            },
            "name" : "Light_Orientation",
            "rotation" : [
                -0.7071067690849304,
                0,
                0,
                0.7071067690849304
            ]
        },
        {
            "children" : [
                4
            ],
            "name" : "Light",
            "rotation" : [
                -0.31267979741096497,
                -0.12194986641407013,
                0.06996602565050125,
                -0.9393957257270813
            ],
            "translation" : [
                -106.13465881347656,
                5.903861999511719,
                -17.085710525512695
            ]
        },
        {
            "camera" : 0,
            "name" : "Camera_Orientation",
            "rotation" : [
                -0.7071067690849304,
                0,
                0,
                0.7071067690849304
            ]
        },
        {
            "children" : [
                6
            ],
            "name" : "Camera",
            "rotation" : [
                -0.4876405596733093,
                0.3210870325565338,
                -0.19892454147338867,
                -0.7871078848838806
            ],
            "translation" : [
                -114.12615966796875,
                4.958309173583984,
                6.004032135009766
            ]
        },
        {
            "mesh" : 2,
            "name" : "Ovira2",
            "rotation" : [
                0,
                0.7071068286895752,
                0,
                -0.7071068286895752
            ],
            "scale" : [
                0.3090229034423828,
                1,
                1
            ],
            "translation" : [
                -111.20759582519531,
                1,
                -15.256919860839844
            ]
        },
        {
            "mesh" : 3,
            "name" : "Ovira1",
            "rotation" : [
                0,
                0.7071068286895752,
                0,
                -0.7071068286895752
            ],
            "scale" : [
                0.3090229034423828,
                1,
                1
            ],
            "translation" : [
                -104.31307220458984,
                1,
                -3.625365734100342
            ]
        },
        {
            "mesh" : 4,
            "name" : "Ovira3",
            "rotation" : [
                0,
                0.7071068286895752,
                0,
                -0.7071068286895752
            ],
            "scale" : [
                0.3090229034423828,
                1,
                1
            ],
            "translation" : [
                -107.70631408691406,
                1,
                -40.195552825927734
            ]
        }
    ],
    "cameras" : [
        {
            "name" : "Camera",
            "perspective" : {
                "aspectRatio" : 1.7777777777777777,
                "yfov" : 0.39959648408210363,
                "zfar" : 100,
                "znear" : 0.10000000149011612
            },
            "type" : "perspective"
        }
    ],
    "materials" : [
        {
            "alphaMode" : "BLEND",
            "doubleSided" : true,
            "name" : "WINDOW",
            "pbrMetallicRoughness" : {
                "baseColorTexture" : {
                    "index" : 0
                },
                "metallicFactor" : 0,
                "roughnessFactor" : 0
            }
        },
        {
            "doubleSided" : true,
            "name" : "MAIN",
            "pbrMetallicRoughness" : {
                "baseColorTexture" : {
                    "index" : 1
                },
                "metallicFactor" : 0.5,
                "roughnessFactor" : 0.5
            }
        },
        {
            "doubleSided" : true,
            "name" : "Material",
            "pbrMetallicRoughness" : {
                "baseColorTexture" : {
                    "index" : 2
                },
                "metallicFactor" : 0,
                "roughnessFactor" : 0.4000000059604645
            }
        }
    ],
    "meshes" : [
        {
            "name" : "Circle.073",
            "primitives" : [
                {
                    "attributes" : {
                        "POSITION" : 0,
                        "NORMAL" : 1,
                        "TANGENT" : 2,
                        "TEXCOORD_0" : 3
                    },
                    "indices" : 4,
                    "material" : 0
                },
                {
                    "attributes" : {
                        "POSITION" : 5,
                        "NORMAL" : 6,
                        "TANGENT" : 7,
                        "TEXCOORD_0" : 8
                    },
                    "indices" : 9,
                    "material" : 1
                }
            ]
        },
        {
            "name" : "Plane.007",
            "primitives" : [
                {
                    "attributes" : {
                        "POSITION" : 10,
                        "NORMAL" : 11,
                        "TANGENT" : 12,
                        "TEXCOORD_0" : 13
                    },
                    "indices" : 14,
                    "material" : 2
                }
            ]
        },
        {
            "name" : "Cube.001",
            "primitives" : [
                {
                    "attributes" : {
                        "POSITION" : 15,
                        "NORMAL" : 16,
                        "TANGENT" : 17,
                        "TEXCOORD_0" : 18
                    },
                    "indices" : 19,
                    "material" : 1
                }
            ]
        },
        {
            "name" : "Cube.002",
            "primitives" : [
                {
                    "attributes" : {
                        "POSITION" : 20,
                        "NORMAL" : 21,
                        "TANGENT" : 22,
                        "TEXCOORD_0" : 23
                    },
                    "indices" : 19,
                    "material" : 1
                }
            ]
        },
        {
            "name" : "Cube.003",
            "primitives" : [
                {
                    "attributes" : {
                        "POSITION" : 24,
                        "NORMAL" : 25,
                        "TANGENT" : 26,
                        "TEXCOORD_0" : 27
                    },
                    "indices" : 19,
                    "material" : 1
                }
            ]
        }
    ],
    "textures" : [
        {
            "sampler" : 0,
            "source" : 0
        },
        {
            "sampler" : 0,
            "source" : 0
        },
        {
            "sampler" : 0,
            "source" : 1
        }
    ],
    "images" : [
        {
            "mimeType" : "image/png",
            "name" : "Color_Texture_FREE CAR 2021",
            "uri" : "Color_Texture_FREE%20CAR%202021.png"
        },
        {
            "mimeType" : "image/png",
            "name" : "Untitled",
            "uri" : "Untitled.png"
        }
    ],
    "accessors" : [
        {
            "bufferView" : 0,
            "componentType" : 5126,
            "count" : 24,
            "max" : [
                0.8328425288200378,
                1.669926404953003,
                0.665921688079834
            ],
            "min" : [
                -0.8328425884246826,
                1.0708999633789062,
                -1.7224246263504028
            ],
            "type" : "VEC3"
        },
        {
            "bufferView" : 1,
            "componentType" : 5126,
            "count" : 24,
            "type" : "VEC3"
        },
        {
            "bufferView" : 2,
            "componentType" : 5126,
            "count" : 24,
            "type" : "VEC4"
        },
        {
            "bufferView" : 3,
            "componentType" : 5126,
            "count" : 24,
            "type" : "VEC2"
        },
        {
            "bufferView" : 4,
            "componentType" : 5123,
            "count" : 30,
            "type" : "SCALAR"
        },
        {
            "bufferView" : 5,
            "componentType" : 5126,
            "count" : 6383,
            "max" : [
                1.0883210897445679,
                1.7160087823867798,
                1.6670520305633545
            ],
            "min" : [
                -1.0883214473724365,
                0.002118527889251709,
                -1.7920552492141724
            ],
            "type" : "VEC3"
        },
        {
            "bufferView" : 6,
            "componentType" : 5126,
            "count" : 6383,
            "type" : "VEC3"
        },
        {
            "bufferView" : 7,
            "componentType" : 5126,
            "count" : 6383,
            "type" : "VEC4"
        },
        {
            "bufferView" : 8,
            "componentType" : 5126,
            "count" : 6383,
            "type" : "VEC2"
        },
        {
            "bufferView" : 9,
            "componentType" : 5123,
            "count" : 9714,
            "type" : "SCALAR"
        },
        {
            "bufferView" : 10,
            "componentType" : 5126,
            "count" : 312,
            "max" : [
                11.899999618530273,
                -0.004187583923339844,
                2.117220163345337
            ],
            "min" : [
                -11.899999618530273,
                -0.004187583923339844,
                -2.117220163345337
            ],
            "type" : "VEC3"
        },
        {
            "bufferView" : 11,
            "componentType" : 5126,
            "count" : 312,
            "type" : "VEC3"
        },
        {
            "bufferView" : 12,
            "componentType" : 5126,
            "count" : 312,
            "type" : "VEC4"
        },
        {
            "bufferView" : 13,
            "componentType" : 5126,
            "count" : 312,
            "type" : "VEC2"
        },
        {
            "bufferView" : 14,
            "componentType" : 5123,
            "count" : 480,
            "type" : "SCALAR"
        },
        {
            "bufferView" : 15,
            "componentType" : 5126,
            "count" : 24,
            "max" : [
                1,
                1,
                1
            ],
            "min" : [
                -1,
                -1,
                -1
            ],
            "type" : "VEC3"
        },
        {
            "bufferView" : 16,
            "componentType" : 5126,
            "count" : 24,
            "type" : "VEC3"
        },
        {
            "bufferView" : 17,
            "componentType" : 5126,
            "count" : 24,
            "type" : "VEC4"
        },
        {
            "bufferView" : 18,
            "componentType" : 5126,
            "count" : 24,
            "type" : "VEC2"
        },
        {
            "bufferView" : 19,
            "componentType" : 5123,
            "count" : 36,
            "type" : "SCALAR"
        },
        {
            "bufferView" : 20,
            "componentType" : 5126,
            "count" : 24,
            "max" : [
                1,
                1,
                1
            ],
            "min" : [
                -1,
                -1,
                -1
            ],
            "type" : "VEC3"
        },
        {
            "bufferView" : 21,
            "componentType" : 5126,
            "count" : 24,
            "type" : "VEC3"
        },
        {
            "bufferView" : 22,
            "componentType" : 5126,
            "count" : 24,
            "type" : "VEC4"
        },
        {
            "bufferView" : 23,
            "componentType" : 5126,
            "count" : 24,
            "type" : "VEC2"
        },
        {
            "bufferView" : 24,
            "componentType" : 5126,
            "count" : 24,
            "max" : [
                1,
                1,
                1
            ],
            "min" : [
                -1,
                -1,
                -1
            ],
            "type" : "VEC3"
        },
        {
            "bufferView" : 25,
            "componentType" : 5126,
            "count" : 24,
            "type" : "VEC3"
        },
        {
            "bufferView" : 26,
            "componentType" : 5126,
            "count" : 24,
            "type" : "VEC4"
        },
        {
            "bufferView" : 27,
            "componentType" : 5126,
            "count" : 24,
            "type" : "VEC2"
        }
    ],
    "bufferViews" : [
        {
            "buffer" : 0,
            "byteLength" : 288,
            "byteOffset" : 0
        },
        {
            "buffer" : 0,
            "byteLength" : 288,
            "byteOffset" : 288
        },
        {
            "buffer" : 0,
            "byteLength" : 384,
            "byteOffset" : 576
        },
        {
            "buffer" : 0,
            "byteLength" : 192,
            "byteOffset" : 960
        },
        {
            "buffer" : 0,
            "byteLength" : 60,
            "byteOffset" : 1152
        },
        {
            "buffer" : 0,
            "byteLength" : 76596,
            "byteOffset" : 1212
        },
        {
            "buffer" : 0,
            "byteLength" : 76596,
            "byteOffset" : 77808
        },
        {
            "buffer" : 0,
            "byteLength" : 102128,
            "byteOffset" : 154404
        },
        {
            "buffer" : 0,
            "byteLength" : 51064,
            "byteOffset" : 256532
        },
        {
            "buffer" : 0,
            "byteLength" : 19428,
            "byteOffset" : 307596
        },
        {
            "buffer" : 0,
            "byteLength" : 3744,
            "byteOffset" : 327024
        },
        {
            "buffer" : 0,
            "byteLength" : 3744,
            "byteOffset" : 330768
        },
        {
            "buffer" : 0,
            "byteLength" : 4992,
            "byteOffset" : 334512
        },
        {
            "buffer" : 0,
            "byteLength" : 2496,
            "byteOffset" : 339504
        },
        {
            "buffer" : 0,
            "byteLength" : 960,
            "byteOffset" : 342000
        },
        {
            "buffer" : 0,
            "byteLength" : 288,
            "byteOffset" : 342960
        },
        {
            "buffer" : 0,
            "byteLength" : 288,
            "byteOffset" : 343248
        },
        {
            "buffer" : 0,
            "byteLength" : 384,
            "byteOffset" : 343536
        },
        {
            "buffer" : 0,
            "byteLength" : 192,
            "byteOffset" : 343920
        },
        {
            "buffer" : 0,
            "byteLength" : 72,
            "byteOffset" : 344112
        },
        {
            "buffer" : 0,
            "byteLength" : 288,
            "byteOffset" : 344184
        },
        {
            "buffer" : 0,
            "byteLength" : 288,
            "byteOffset" : 344472
        },
        {
            "buffer" : 0,
            "byteLength" : 384,
            "byteOffset" : 344760
        },
        {
            "buffer" : 0,
            "byteLength" : 192,
            "byteOffset" : 345144
        },
        {
            "buffer" : 0,
            "byteLength" : 288,
            "byteOffset" : 345336
        },
        {
            "buffer" : 0,
            "byteLength" : 288,
            "byteOffset" : 345624
        },
        {
            "buffer" : 0,
            "byteLength" : 384,
            "byteOffset" : 345912
        },
        {
            "buffer" : 0,
            "byteLength" : 192,
            "byteOffset" : 346296
        }
    ],
    "samplers" : [
        {
            "magFilter" : 9729,
            "minFilter" : 9987
        }
    ],
    "buffers" : [
        {
            "byteLength" : 346488,
            "uri" : "kvadratnaCestaLight.bin"
        }
    ]
}
