{
    "asset" : {
        "generator" : "Khronos glTF Blender I/O v1.0.5",
        "version" : "2.0"
    },
    "scene" : 0,
    "scenes" : [
        {
            "name" : "Scene",
            "nodes" : [
                0,
                1,
                2,
                3,
                4,
                5,
                6
            ]
        }
    ],
    "nodes" : [
        {
            "mesh" : 0,
            "name" : "carbody",
            "rotation" : [
                0,
                0.9999817609786987,
                0,
                0.006048360839486122
            ]
        },
        {
            "name" : "Light",
            "rotation" : [
                -0.31267979741096497,
                -0.12194986641407013,
                0.06996602565050125,
                -0.9393957257270813
            ],
            "translation" : [
                1.1090106964111328,
                5.903861999511719,
                -17.085710525512695
            ]
        },
        {
            "name" : "Camera",
            "rotation" : [
                -0.4876405596733093,
                0.3210870325565338,
                -0.19892454147338867,
                -0.7871078848838806
            ],
            "translation" : [
                -6.88249397277832,
                4.958309173583984,
                6.004032135009766
            ]
        },
        {
            "mesh" : 1,
            "name" : "Plane",
            "rotation" : [
                0,
                0.6195940971374512,
                0,
                -0.7849224209785461
            ],
            "scale" : [
                6,
                6,
                6
            ],
            "translation" : [
                -5.620752334594727,
                0,
                -20
            ]
        },
        {
            "mesh" : 2,
            "name" : "Cube",
            "rotation" : [
                0,
                0.7071067690849304,
                0,
                -0.7071067690849304
            ],
            "scale" : [
                0.3090229034423828,
                1,
                1
            ],
            "translation" : [
                -3.9639275074005127,
                1,
                -15.256919860839844
            ]
        },
        {
            "mesh" : 3,
            "name" : "Cube.001",
            "rotation" : [
                0,
                0.7071067690849304,
                0,
                -0.7071067690849304
            ],
            "scale" : [
                0.3090229034423828,
                1,
                1
            ],
            "translation" : [
                2.9305953979492188,
                1,
                -3.625365734100342
            ]
        },
        {
            "name" : "Empty",
            "scale" : [
                6,
                6,
                6
            ],
            "translation" : [
                79.96630859375,
                0,
                41.91511154174805
            ]
        }
    ],
    "materials" : [
        {
            "alphaMode" : "BLEND",
            "doubleSided" : true,
            "name" : "WINDOW",
            "pbrMetallicRoughness" : {
                "baseColorTexture" : {
                    "index" : 0,
                    "texCoord" : 0
                },
                "metallicFactor" : 0,
                "roughnessFactor" : 0
            }
        },
        {
            "doubleSided" : true,
            "name" : "MAIN",
            "pbrMetallicRoughness" : {
                "baseColorTexture" : {
                    "index" : 1,
                    "texCoord" : 0
                },
                "metallicFactor" : 0.5,
                "roughnessFactor" : 0.5
            }
        },
        {
            "doubleSided" : true,
            "name" : "Material",
            "pbrMetallicRoughness" : {
                "baseColorTexture" : {
                    "index" : 2,
                    "texCoord" : 0
                },
                "metallicFactor" : 0,
                "roughnessFactor" : 0.4000000059604645
            }
        }
    ],
    "meshes" : [
        {
            "name" : "Circle.073",
            "primitives" : [
                {
                    "attributes" : {
                        "POSITION" : 0,
                        "NORMAL" : 1,
                        "TEXCOORD_0" : 2
                    },
                    "indices" : 3,
                    "material" : 0
                },
                {
                    "attributes" : {
                        "POSITION" : 4,
                        "NORMAL" : 5,
                        "TEXCOORD_0" : 6
                    },
                    "indices" : 7,
                    "material" : 1
                }
            ]
        },
        {
            "name" : "Plane",
            "primitives" : [
                {
                    "attributes" : {
                        "POSITION" : 8,
                        "NORMAL" : 9,
                        "TEXCOORD_0" : 10
                    },
                    "indices" : 11,
                    "material" : 2
                },
                {
                    "attributes" : {
                        "POSITION" : 12,
                        "NORMAL" : 13,
                        "TEXCOORD_0" : 14
                    },
                    "indices" : 15,
                    "material" : 0
                }
            ]
        },
        {
            "name" : "Cube.001",
            "primitives" : [
                {
                    "attributes" : {
                        "POSITION" : 16,
                        "NORMAL" : 17,
                        "TEXCOORD_0" : 18
                    },
                    "indices" : 19,
                    "material" : 0
                }
            ]
        },
        {
            "name" : "Cube.002",
            "primitives" : [
                {
                    "attributes" : {
                        "POSITION" : 20,
                        "NORMAL" : 21,
                        "TEXCOORD_0" : 22
                    },
                    "indices" : 19,
                    "material" : 0
                }
            ]
        }
    ],
    "textures" : [
        {
            "source" : 0
        },
        {
            "source" : 1
        },
        {
            "source" : 2
        }
    ],
    "images" : [
        {
            "mimeType" : "image/png",
            "name" : "Color_Texture_FREE CAR 2021",
            "uri" : "Color_Texture_FREE CAR 2021.png"
        },
        {
            "mimeType" : "image/png",
            "name" : "Color_Texture_FREE CAR 2021",
            "uri" : "Color_Texture_FREE CAR 2021-1.png"
        },
        {
            "mimeType" : "image/png",
            "name" : "Untitled",
            "uri" : "Untitled.png"
        }
    ],
    "accessors" : [
        {
            "bufferView" : 0,
            "componentType" : 5126,
            "count" : 24,
            "max" : [
                0.8328425288200378,
                1.669926404953003,
                0.665921688079834
            ],
            "min" : [
                -0.8328425884246826,
                1.0708999633789062,
                -1.7224246263504028
            ],
            "type" : "VEC3"
        },
        {
            "bufferView" : 1,
            "componentType" : 5126,
            "count" : 24,
            "type" : "VEC3"
        },
        {
            "bufferView" : 2,
            "componentType" : 5126,
            "count" : 24,
            "type" : "VEC2"
        },
        {
            "bufferView" : 3,
            "componentType" : 5123,
            "count" : 30,
            "type" : "SCALAR"
        },
        {
            "bufferView" : 4,
            "componentType" : 5126,
            "count" : 5883,
            "max" : [
                1.0883210897445679,
                1.7160087823867798,
                1.6670520305633545
            ],
            "min" : [
                -1.0883214473724365,
                0.002118527889251709,
                -1.7920552492141724
            ],
            "type" : "VEC3"
        },
        {
            "bufferView" : 5,
            "componentType" : 5126,
            "count" : 5883,
            "type" : "VEC3"
        },
        {
            "bufferView" : 6,
            "componentType" : 5126,
            "count" : 5883,
            "type" : "VEC2"
        },
        {
            "bufferView" : 7,
            "componentType" : 5123,
            "count" : 9714,
            "type" : "SCALAR"
        },
        {
            "bufferView" : 8,
            "componentType" : 5126,
            "count" : 320,
            "max" : [
                14.681984901428223,
                0,
                1.074425458908081
            ],
            "min" : [
                -15.861040115356445,
                0,
                -29.47144889831543
            ],
            "type" : "VEC3"
        },
        {
            "bufferView" : 9,
            "componentType" : 5126,
            "count" : 320,
            "type" : "VEC3"
        },
        {
            "bufferView" : 10,
            "componentType" : 5126,
            "count" : 320,
            "type" : "VEC2"
        },
        {
            "bufferView" : 11,
            "componentType" : 5123,
            "count" : 480,
            "type" : "SCALAR"
        },
        {
            "bufferView" : 12,
            "componentType" : 5126,
            "count" : 3840,
            "max" : [
                14.731060028076172,
                0.3333333432674408,
                1.1232452392578125
            ],
            "min" : [
                -15.910529136657715,
                0,
                -29.520748138427734
            ],
            "type" : "VEC3"
        },
        {
            "bufferView" : 13,
            "componentType" : 5126,
            "count" : 3840,
            "type" : "VEC3"
        },
        {
            "bufferView" : 14,
            "componentType" : 5126,
            "count" : 3840,
            "type" : "VEC2"
        },
        {
            "bufferView" : 15,
            "componentType" : 5123,
            "count" : 5760,
            "type" : "SCALAR"
        },
        {
            "bufferView" : 16,
            "componentType" : 5126,
            "count" : 24,
            "max" : [
                1,
                1,
                1
            ],
            "min" : [
                -1,
                -1,
                -1
            ],
            "type" : "VEC3"
        },
        {
            "bufferView" : 17,
            "componentType" : 5126,
            "count" : 24,
            "type" : "VEC3"
        },
        {
            "bufferView" : 18,
            "componentType" : 5126,
            "count" : 24,
            "type" : "VEC2"
        },
        {
            "bufferView" : 19,
            "componentType" : 5123,
            "count" : 36,
            "type" : "SCALAR"
        },
        {
            "bufferView" : 20,
            "componentType" : 5126,
            "count" : 24,
            "max" : [
                1,
                1,
                1
            ],
            "min" : [
                -1,
                -1,
                -1
            ],
            "type" : "VEC3"
        },
        {
            "bufferView" : 21,
            "componentType" : 5126,
            "count" : 24,
            "type" : "VEC3"
        },
        {
            "bufferView" : 22,
            "componentType" : 5126,
            "count" : 24,
            "type" : "VEC2"
        }
    ],
    "bufferViews" : [
        {
            "buffer" : 0,
            "byteLength" : 288,
            "byteOffset" : 0
        },
        {
            "buffer" : 0,
            "byteLength" : 288,
            "byteOffset" : 288
        },
        {
            "buffer" : 0,
            "byteLength" : 192,
            "byteOffset" : 576
        },
        {
            "buffer" : 0,
            "byteLength" : 60,
            "byteOffset" : 768
        },
        {
            "buffer" : 0,
            "byteLength" : 70596,
            "byteOffset" : 828
        },
        {
            "buffer" : 0,
            "byteLength" : 70596,
            "byteOffset" : 71424
        },
        {
            "buffer" : 0,
            "byteLength" : 47064,
            "byteOffset" : 142020
        },
        {
            "buffer" : 0,
            "byteLength" : 19428,
            "byteOffset" : 189084
        },
        {
            "buffer" : 0,
            "byteLength" : 3840,
            "byteOffset" : 208512
        },
        {
            "buffer" : 0,
            "byteLength" : 3840,
            "byteOffset" : 212352
        },
        {
            "buffer" : 0,
            "byteLength" : 2560,
            "byteOffset" : 216192
        },
        {
            "buffer" : 0,
            "byteLength" : 960,
            "byteOffset" : 218752
        },
        {
            "buffer" : 0,
            "byteLength" : 46080,
            "byteOffset" : 219712
        },
        {
            "buffer" : 0,
            "byteLength" : 46080,
            "byteOffset" : 265792
        },
        {
            "buffer" : 0,
            "byteLength" : 30720,
            "byteOffset" : 311872
        },
        {
            "buffer" : 0,
            "byteLength" : 11520,
            "byteOffset" : 342592
        },
        {
            "buffer" : 0,
            "byteLength" : 288,
            "byteOffset" : 354112
        },
        {
            "buffer" : 0,
            "byteLength" : 288,
            "byteOffset" : 354400
        },
        {
            "buffer" : 0,
            "byteLength" : 192,
            "byteOffset" : 354688
        },
        {
            "buffer" : 0,
            "byteLength" : 72,
            "byteOffset" : 354880
        },
        {
            "buffer" : 0,
            "byteLength" : 288,
            "byteOffset" : 354952
        },
        {
            "buffer" : 0,
            "byteLength" : 288,
            "byteOffset" : 355240
        },
        {
            "buffer" : 0,
            "byteLength" : 192,
            "byteOffset" : 355528
        }
    ],
    "buffers" : [
        {
            "byteLength" : 355720,
            "uri" : "lap.bin"
        }
    ]
}
